<svg width="24" height="24" viewBox="0 0 24 24" fill="none" xmlns="http://www.w3.org/2000/svg">
<path d="M11.6869 19.6977C11.6869 21.1559 10.5048 22.338 9.04658 22.338C7.58839 22.338 6.4063 21.1559 6.4063 19.6977C6.4063 18.7248 6.93248 17.8748 7.71581 17.4168C7.70158 17.3791 6.57297 12.7791 4.33008 3.61693C4.29333 3.46647 4.16506 3.35766 4.01318 3.34381L0.840071 3.3423C0.37614 3.34225 0 2.96616 0 2.50218C0 2.05366 0.351447 1.68727 0.793984 1.66333L3.98029 1.66211C4.89924 1.66211 5.7019 2.27589 5.94614 3.1564L6.36158 4.8535L23.1599 4.85364C23.6239 4.85364 24 5.22978 24 5.69371C24 5.72712 23.9889 5.81468 23.9667 5.95643L21.8722 14.357C21.7724 14.7575 21.4005 15.0186 21.0026 14.9922L8.83839 14.9953L9.27489 16.782C9.31165 16.9324 9.43992 17.0412 9.5918 17.0551L19.3676 17.0574C20.8258 17.0574 22.0079 18.2395 22.0079 19.6976C22.0079 21.0643 20.9696 22.1884 19.6389 22.3242C19.5497 22.3333 19.4592 22.3379 19.3676 22.3379C17.9094 22.3379 16.7273 21.1558 16.7273 19.6976C16.7273 19.3586 16.7912 19.0346 16.9076 18.7368H11.5066C11.623 19.0346 11.6869 19.3587 11.6869 19.6977ZM19.3677 18.7375C18.8375 18.7375 18.4076 19.1674 18.4076 19.6976C18.4076 20.2279 18.8375 20.6577 19.3677 20.6577C19.8979 20.6577 20.3278 20.2279 20.3278 19.6976C20.3278 19.1674 19.8979 18.7375 19.3677 18.7375ZM9.04653 18.7375C8.5163 18.7375 8.08644 19.1674 8.08644 19.6976C8.08644 20.2279 8.5163 20.6577 9.04653 20.6577C9.57677 20.6577 10.0066 20.2279 10.0066 19.6976C10.0067 19.1674 9.57681 18.7375 9.04653 18.7375ZM22.091 6.53364H6.77207L8.42827 13.3156L20.4003 13.3151L22.091 6.53364Z" fill="white"/>
</svg>
