<svg width="25" height="25" viewBox="0 0 25 25" fill="none" xmlns="http://www.w3.org/2000/svg">
<path d="M7.30541 17.3325H4.77244C4.66315 17.3325 4.55833 17.2891 4.48105 17.2118C4.40377 17.1345 4.36035 17.0297 4.36035 16.9204C4.36035 16.8111 4.40377 16.7063 4.48105 16.629C4.55833 16.5517 4.66315 16.5083 4.77244 16.5083H7.30541C7.4147 16.5083 7.51952 16.5517 7.5968 16.629C7.67408 16.7063 7.71749 16.8111 7.71749 16.9204C7.71749 17.0297 7.67408 17.1345 7.5968 17.2118C7.51952 17.2891 7.4147 17.3325 7.30541 17.3325Z" fill="#399803"/>
<path d="M17.5828 17.3325H12.0498C11.9405 17.3325 11.8357 17.2891 11.7584 17.2118C11.6811 17.1345 11.6377 17.0297 11.6377 16.9204C11.6377 16.8111 11.6811 16.7063 11.7584 16.629C11.8357 16.5517 11.9405 16.5083 12.0498 16.5083H17.5828C17.692 16.5083 17.7969 16.5517 17.8741 16.629C17.9514 16.7063 17.9948 16.8111 17.9948 16.9204C17.9948 17.0297 17.9514 17.1345 17.8741 17.2118C17.7969 17.2891 17.692 17.3325 17.5828 17.3325Z" fill="#399803"/>
<path d="M24.3046 17.3323H22.3211C22.2118 17.3323 22.107 17.2888 22.0297 17.2116C21.9524 17.1343 21.909 17.0295 21.909 16.9202C21.909 16.8109 21.9524 16.7061 22.0297 16.6288C22.107 16.5515 22.2118 16.5081 22.3211 16.5081H23.9008V13.3158C23.9012 13.1094 23.8514 12.906 23.7557 12.7232C23.6599 12.5403 23.5212 12.3836 23.3513 12.2663L22.0876 11.4119C22.0434 11.3806 22.0052 11.3415 21.9749 11.2965L18.9749 6.66193C18.8501 6.4664 18.6779 6.30566 18.4742 6.1947C18.2705 6.08373 18.042 6.02614 17.8101 6.02731H6.31834C6.20905 6.02731 6.10423 5.9839 6.02695 5.90662C5.94967 5.82933 5.90625 5.72452 5.90625 5.61523C5.90625 5.50593 5.94967 5.40112 6.02695 5.32383C6.10423 5.24655 6.20905 5.20314 6.31834 5.20314H17.8101C18.1797 5.20191 18.5436 5.2939 18.8682 5.47061C19.1929 5.64733 19.4677 5.90305 19.6672 6.21413L22.6205 10.7773L23.8019 11.585C24.0852 11.7763 24.3174 12.0341 24.4783 12.3358C24.6392 12.6374 24.7239 12.9739 24.7249 13.3158V16.9202C24.7249 16.975 24.714 17.0293 24.6928 17.0798C24.6716 17.1303 24.6405 17.1761 24.6013 17.2145C24.5622 17.2529 24.5158 17.2831 24.4648 17.3033C24.4139 17.3235 24.3594 17.3334 24.3046 17.3323Z" fill="#399803"/>
<path d="M9.67536 19.7965C9.1244 19.7965 8.58581 19.6331 8.1277 19.3271C7.6696 19.021 7.31254 18.5859 7.1017 18.0769C6.89086 17.5678 6.83569 17.0077 6.94318 16.4673C7.05066 15.927 7.31598 15.4306 7.70557 15.041C8.09516 14.6514 8.59152 14.3861 9.1319 14.2786C9.67227 14.1711 10.2324 14.2263 10.7414 14.4371C11.2504 14.648 11.6855 15.005 11.9916 15.4632C12.2977 15.9213 12.4611 16.4599 12.4611 17.0108C12.4611 17.7496 12.1676 18.4582 11.6452 18.9806C11.1227 19.503 10.4142 19.7965 9.67536 19.7965ZM9.67536 15.0493C9.28741 15.0493 8.90816 15.1643 8.58559 15.3799C8.26302 15.5954 8.0116 15.9017 7.86314 16.2602C7.71467 16.6186 7.67583 17.013 7.75152 17.3935C7.8272 17.774 8.01402 18.1235 8.28835 18.3978C8.56267 18.6722 8.91219 18.859 9.29269 18.9347C9.67319 19.0103 10.0676 18.9715 10.426 18.823C10.7844 18.6746 11.0908 18.4232 11.3063 18.1006C11.5219 17.778 11.6369 17.3988 11.6369 17.0108C11.6362 16.4908 11.4293 15.9923 11.0616 15.6246C10.6939 15.2569 10.1954 15.05 9.67536 15.0493Z" fill="#399803"/>
<path d="M19.9478 19.7965C19.3969 19.7965 18.8583 19.6331 18.4002 19.3271C17.9421 19.021 17.585 18.5859 17.3742 18.0769C17.1633 17.5678 17.1081 17.0077 17.2156 16.4673C17.3231 15.927 17.5884 15.4306 17.978 15.041C18.3676 14.6514 18.864 14.3861 19.4044 14.2786C19.9447 14.1711 20.5048 14.2263 21.0139 14.4371C21.5229 14.648 21.958 15.005 22.2641 15.4632C22.5702 15.9213 22.7335 16.4599 22.7335 17.0108C22.7328 17.7494 22.4391 18.4575 21.9168 18.9798C21.3946 19.5021 20.6864 19.7958 19.9478 19.7965ZM19.9478 15.0493C19.5599 15.0493 19.1806 15.1643 18.8581 15.3799C18.5355 15.5954 18.2841 15.9017 18.1356 16.2602C17.9871 16.6186 17.9483 17.013 18.024 17.3935C18.0997 17.774 18.2865 18.1235 18.5608 18.3978C18.8351 18.6722 19.1846 18.859 19.5651 18.9347C19.9456 19.0103 20.34 18.9715 20.6985 18.823C21.0569 18.6746 21.3632 18.4232 21.5788 18.1006C21.7943 17.778 21.9094 17.3988 21.9094 17.0108C21.9079 16.491 21.7008 15.9929 21.3332 15.6254C20.9657 15.2579 20.4676 15.0507 19.9478 15.0493Z" fill="#399803"/>
<path d="M22.3217 11.4834H15.6377C15.5284 11.4834 15.4236 11.4399 15.3463 11.3627C15.269 11.2854 15.2256 11.1806 15.2256 11.0713V5.61522C15.2256 5.50593 15.269 5.40111 15.3463 5.32383C15.4236 5.24655 15.5284 5.20313 15.6377 5.20313H17.7421C18.1328 5.20223 18.5176 5.29963 18.8608 5.48639C19.2041 5.67314 19.4948 5.94323 19.7064 6.27181L22.6679 10.8487C22.7088 10.9108 22.732 10.9827 22.7351 11.057C22.7382 11.1312 22.7211 11.2048 22.6855 11.27C22.6499 11.3353 22.5973 11.3896 22.5332 11.4271C22.4691 11.4647 22.396 11.4841 22.3217 11.4834ZM16.0498 10.6592H21.5635L19.014 6.71961C18.8771 6.50677 18.6889 6.33179 18.4666 6.21081C18.2443 6.08983 17.9951 6.02672 17.7421 6.02731H16.0498V10.6592Z" fill="#399803"/>
<path d="M7.81548 9.0356H3.50779C3.3985 9.0356 3.29368 8.99219 3.2164 8.9149C3.13912 8.83762 3.0957 8.73281 3.0957 8.62351C3.0957 8.51422 3.13912 8.40941 3.2164 8.33212C3.29368 8.25484 3.3985 8.21143 3.50779 8.21143H7.81548C7.92478 8.21143 8.02959 8.25484 8.10687 8.33212C8.18415 8.40941 8.22757 8.51422 8.22757 8.62351C8.22757 8.73281 8.18415 8.83762 8.10687 8.9149C8.02959 8.99219 7.92478 9.0356 7.81548 9.0356Z" fill="#399803"/>
<path d="M5.87592 12.0249H0.757791C0.648499 12.0249 0.543682 11.9814 0.466401 11.9042C0.389119 11.8269 0.345703 11.7221 0.345703 11.6128C0.345703 11.5035 0.389119 11.3987 0.466401 11.3214C0.543682 11.2441 0.648499 11.2007 0.757791 11.2007H5.87592C5.98522 11.2007 6.09003 11.2441 6.16731 11.3214C6.2446 11.3987 6.28801 11.5035 6.28801 11.6128C6.28801 11.7221 6.2446 11.8269 6.16731 11.9042C6.09003 11.9814 5.98522 12.0249 5.87592 12.0249Z" fill="#399803"/>
<path d="M5.40423 14.5249H2.33006C2.22076 14.5249 2.11595 14.4814 2.03867 14.4042C1.96138 14.3269 1.91797 14.2221 1.91797 14.1128C1.91797 14.0035 1.96138 13.8987 2.03867 13.8214C2.11595 13.7441 2.22076 13.7007 2.33006 13.7007H5.40423C5.51353 13.7007 5.61834 13.7441 5.69562 13.8214C5.7729 13.8987 5.81632 14.0035 5.81632 14.1128C5.81632 14.2221 5.7729 14.3269 5.69562 14.4042C5.61834 14.4814 5.51353 14.5249 5.40423 14.5249Z" fill="#399803"/>
</svg>
