<svg width="14" height="14" viewBox="0 0 14 14" fill="none" xmlns="http://www.w3.org/2000/svg">
<g clip-path="url(#clip0_108_182)">
<path fill-rule="evenodd" clip-rule="evenodd" d="M7 0C10.866 0 14 3.134 14 7C14 10.866 10.866 14 7 14C3.134 14 0 10.866 0 7C0 3.134 3.134 0 7 0ZM11.4434 9.71362V4.51112L8.84196 7.11236L11.4434 9.71362ZM3.11238 9.81961H10.8878L8.5114 7.44322L7.60569 8.34879C7.56178 8.39258 7.50228 8.41717 7.44026 8.41714H6.55979C6.52908 8.41717 6.49865 8.41115 6.47026 8.39942C6.44187 8.38769 6.41607 8.37049 6.39434 8.34879L5.48866 7.44322L3.11227 9.81961H3.11238ZM2.55664 4.51095V9.71376L5.15804 7.11236L2.55664 4.51095ZM11.1127 4.18039H2.8875L6.65667 7.94957H7.34346L11.1127 4.18039Z" fill="white"/>
</g>
<defs>
<clipPath id="clip0_108_182">
<rect width="14" height="14" fill="white"/>
</clipPath>
</defs>
</svg>
