<svg width="14" height="14" viewBox="0 0 14 14" fill="none" xmlns="http://www.w3.org/2000/svg">
<g clip-path="url(#clip0_108_178)">
<path d="M7 0C5.61553 0 4.26216 0.410543 3.11101 1.17971C1.95987 1.94888 1.06266 3.04213 0.532846 4.32122C0.00303297 5.6003 -0.13559 7.00777 0.134506 8.36563C0.404603 9.7235 1.07129 10.9708 2.05026 11.9497C3.02922 12.9287 4.2765 13.5954 5.63437 13.8655C6.99224 14.1356 8.3997 13.997 9.67879 13.4672C10.9579 12.9373 12.0511 12.0401 12.8203 10.889C13.5895 9.73785 14 8.38447 14 7C14 5.14349 13.2625 3.36301 11.9497 2.05025C10.637 0.737498 8.85652 0 7 0ZM8.99132 4.55553C8.99132 4.68724 8.93606 4.73974 8.80711 4.73974C8.55935 4.73974 8.31158 4.73974 8.06474 4.74987C7.8179 4.76 7.68342 4.87237 7.68342 5.13026C7.6779 5.40658 7.68342 5.67737 7.68342 5.95921H8.74356C8.89461 5.95921 8.94619 6.01079 8.94619 6.16276C8.94619 6.53119 8.94619 6.90145 8.94619 7.27355C8.94619 7.42368 8.89829 7.47066 8.74632 7.47158H7.67421V10.4687C7.67421 10.6289 7.62448 10.6796 7.46605 10.6796H6.3129C6.17382 10.6796 6.11948 10.6253 6.11948 10.4862V7.47618H5.20395C5.06027 7.47618 5.00869 7.42368 5.00869 7.27908C5.00869 6.90636 5.00869 6.53395 5.00869 6.16184C5.00869 6.01816 5.06303 5.96382 5.20487 5.96382H6.11948V5.1579C6.10862 4.79588 6.19548 4.43763 6.37092 4.12079C6.55331 3.80092 6.84556 3.55808 7.19342 3.43737C7.41918 3.35522 7.6578 3.31405 7.89803 3.31579H8.80342C8.93329 3.31579 8.98763 3.3729 8.98763 3.5C8.99224 3.85461 8.99224 4.20553 8.99132 4.55553Z" fill="white"/>
</g>
<defs>
<clipPath id="clip0_108_178">
<rect width="14" height="14" fill="white"/>
</clipPath>
</defs>
</svg>
