<svg width="24" height="24" viewBox="0 0 24 24" fill="none" xmlns="http://www.w3.org/2000/svg">
<g clip-path="url(#clip0_108_60)">
<mask id="mask0_108_60" style="mask-type:luminance" maskUnits="userSpaceOnUse" x="0" y="0" width="24" height="24">
<path d="M24 1.90735e-06L-1.90798e-07 4.0055e-06L1.90735e-06 24L24 24L24 1.90735e-06Z" fill="white"/>
</mask>
<g mask="url(#mask0_108_60)">
<path fill-rule="evenodd" clip-rule="evenodd" d="M23.7969 12C23.7969 18.5152 18.5153 23.7969 12 23.7969C5.4848 23.7969 0.203126 18.5153 0.203126 12C0.203125 5.48465 5.4848 0.203129 12 0.203128C18.5153 0.203127 23.7969 5.48466 23.7969 12ZM12 22.7969C17.9631 22.7969 22.7969 17.963 22.7969 12C22.7969 6.03694 17.9631 1.20313 12 1.20313C6.03707 1.20313 1.20313 6.03695 1.20313 12C1.20313 17.963 6.03708 22.7969 12 22.7969Z" fill="white"/>
<path fill-rule="evenodd" clip-rule="evenodd" d="M17.0186 10.4937C17.0186 13.2655 14.7717 15.5125 11.9998 15.5125C9.22789 15.5125 6.98101 13.2655 6.98101 10.4937C6.98101 7.72199 9.22789 5.475 11.9998 5.475C14.7717 5.475 17.0186 7.72198 17.0186 10.4937ZM11.9998 14.5125C14.2194 14.5125 16.0186 12.7132 16.0186 10.4937C16.0186 8.27426 14.2194 6.475 11.9998 6.475C9.78018 6.475 7.98101 8.27426 7.98101 10.4937C7.98101 12.7132 9.78019 14.5125 11.9998 14.5125Z" fill="white"/>
<path fill-rule="evenodd" clip-rule="evenodd" d="M5.20747 21.5641C4.93287 21.5349 4.7339 21.2887 4.76305 21.0141C5.15102 17.3594 8.24266 14.5125 12.0002 14.5125C15.7576 14.5125 18.8493 17.3592 19.2374 21.014C19.2666 21.2886 19.0676 21.5348 18.793 21.564C18.5184 21.5931 18.2722 21.3942 18.243 21.1196C17.9083 17.9679 15.2407 15.5125 12.0002 15.5125C8.75954 15.5125 6.09202 17.9681 5.75746 21.1196C5.72831 21.3942 5.48207 21.5932 5.20747 21.5641Z" fill="white"/>
</g>
</g>
<defs>
<clipPath id="clip0_108_60">
<rect width="24" height="24" fill="white" transform="matrix(1 0 0 -1 0 24)"/>
</clipPath>
</defs>
</svg>
