<svg width="14" height="14" viewBox="0 0 14 14" fill="none" xmlns="http://www.w3.org/2000/svg">
<path fill-rule="evenodd" clip-rule="evenodd" d="M7 14C10.866 14 14 10.866 14 7C14 3.13401 10.866 0 7 0C3.13401 0 0 3.13401 0 7C0 10.866 3.13401 14 7 14ZM10.0865 3.91363C9.35825 3.17807 8.39108 2.72697 7.35949 2.64171C6.32789 2.55645 5.29979 2.84263 4.46062 3.44864C3.62144 4.05464 3.02645 4.94058 2.78295 5.94664C2.53945 6.9527 2.66349 8.01266 3.13268 8.93533L2.67211 11.1714C2.66733 11.1936 2.66719 11.2166 2.67171 11.2389C2.67623 11.2612 2.6853 11.2824 2.69836 11.301C2.71749 11.3293 2.7448 11.3511 2.77663 11.3635C2.80847 11.3758 2.84333 11.3782 2.87654 11.3702L5.06802 10.8508C5.98809 11.3081 7.04057 11.4242 8.03818 11.1783C9.03579 10.9325 9.91382 10.3407 10.516 9.50819C11.1183 8.67573 11.4056 7.6566 11.327 6.63216C11.2483 5.60772 10.8088 4.6444 10.0865 3.91363ZM9.40324 9.36726C8.89934 9.86975 8.25046 10.2014 7.54806 10.3156C6.84565 10.4298 6.12512 10.3207 5.48802 10.0036L5.18256 9.85249L3.83904 10.1707L3.84302 10.154L4.12143 8.80169L3.97188 8.50658C3.64635 7.86725 3.53151 7.14129 3.64382 6.4327C3.75614 5.72411 4.08983 5.06925 4.59711 4.56192C5.23451 3.92472 6.09889 3.56675 7.00018 3.56675C7.90146 3.56675 8.76584 3.92472 9.40324 4.56192C9.40867 4.56815 9.41452 4.57399 9.42074 4.57942C10.0502 5.21827 10.4017 6.08007 10.3984 6.97695C10.3951 7.87382 10.0374 8.73303 9.40324 9.36726ZM8.53222 9.03078C8.85915 8.95203 9.11927 8.63465 9.28393 8.37533C9.30923 8.33393 9.32472 8.2873 9.32924 8.239C9.33375 8.1907 9.32715 8.142 9.30996 8.09664C9.29277 8.05127 9.26543 8.01044 9.23003 7.97727C9.19464 7.94409 9.15212 7.91944 9.10575 7.90522L8.26495 7.66658C8.21082 7.65123 8.15359 7.6505 8.0991 7.66447C8.0446 7.67845 7.99478 7.70662 7.95472 7.74612L7.74711 7.95533C7.7049 7.99895 7.65059 8.02893 7.59119 8.04141C7.53178 8.05389 7.47 8.04829 7.41381 8.02533C7.20381 7.94101 6.87211 7.69362 6.57302 7.42317C6.30654 7.18374 6.06631 6.92522 5.96609 6.74942C5.9359 6.6959 5.92243 6.63458 5.92739 6.57334C5.93235 6.5121 5.95552 6.45374 5.99393 6.40578L6.1729 6.17351C6.20767 6.12901 6.22967 6.07588 6.23654 6.01983C6.24341 5.96377 6.23488 5.90691 6.21188 5.85533L5.8579 5.05987C5.8383 5.01521 5.80853 4.97576 5.77095 4.94466C5.73337 4.91356 5.68904 4.89169 5.6415 4.88079C5.59396 4.86989 5.54453 4.87027 5.49716 4.88189C5.44979 4.89351 5.4058 4.91605 5.3687 4.94772C5.13404 5.14499 4.85563 5.44726 4.82222 5.78135C4.76177 6.36999 5.01154 7.11215 5.97324 8.00385L5.98677 8.01578C7.08052 9.03556 7.95949 9.16919 8.53222 9.03078Z" fill="white"/>
</svg>
