<svg width="170" height="33" viewBox="0 0 170 33" fill="none" xmlns="http://www.w3.org/2000/svg">
<path d="M3.60032 17.2978C3.61216 14.7351 4.6388 12.2813 6.45582 10.4728C8.27283 8.66439 10.7324 7.64834 13.2969 7.64683H18.5541C19.5451 7.64718 20.4978 7.26468 21.213 6.5793C21.9283 5.89392 22.3506 4.95875 22.3919 3.96935V3.69695C22.358 2.7033 21.9385 1.76183 21.2222 1.07182C20.5059 0.381804 19.549 -0.00258553 18.5541 1.30903e-05H13.2969C-1.36285 1.30903e-05 -5.25707 20.5472 8.5265 25.684C7.03687 24.846 5.79616 23.6284 4.93079 22.1553C4.06543 20.6821 3.60634 19.006 3.60032 17.2978Z" fill="url(#paint0_linear_35_746)"/>
<path d="M12.9071 25.5868C11.7014 25.5335 10.5269 25.1863 9.48623 24.5753C8.44555 23.9644 7.57023 23.1084 6.93659 22.0818C6.30295 21.0553 5.93023 19.8894 5.85095 18.6859C5.77166 17.4823 5.9882 16.2777 6.48169 15.177C8.28866 16.9553 10.7215 17.9543 13.2576 17.9594H18.5148C19.5054 17.9596 20.4576 18.3423 21.1725 19.0276C21.8873 19.713 22.3094 20.6478 22.3506 21.6369V21.9093C22.3128 22.8995 21.8917 23.8364 21.1761 24.5224C20.4606 25.2084 19.5064 25.59 18.5148 25.5868H12.9071Z" fill="url(#paint1_linear_35_746)"/>
<path d="M12.4591 15.9552C14.1797 15.9552 15.5745 14.5613 15.5745 12.842C15.5745 11.1226 14.1797 9.72876 12.4591 9.72876C10.7385 9.72876 9.34375 11.1226 9.34375 12.842C9.34375 14.5613 10.7385 15.9552 12.4591 15.9552Z" fill="url(#paint2_linear_35_746)"/>
<path d="M27.9192 25.684C27.3797 25.7116 26.846 25.5612 26.4005 25.2559C26.0111 24.964 25.7969 24.6527 25.7969 24.3025V11.2854C25.7984 11.086 25.8558 10.891 25.9624 10.7226C26.0691 10.5541 26.2209 10.4188 26.4005 10.332C26.8637 10.0731 27.3888 9.94533 27.9192 9.96228C28.3886 9.94198 28.8524 10.0715 29.2433 10.332C29.4131 10.427 29.5549 10.5653 29.654 10.7327C29.7532 10.9002 29.8063 11.0908 29.8079 11.2854V12.2777C30.1955 11.5814 30.751 10.9928 31.424 10.5655C32.262 10.0187 33.2469 9.74039 34.2473 9.7677C35.271 9.76391 36.2684 10.0916 37.0901 10.7017C37.9644 11.3212 38.6682 12.151 39.1365 13.1144C39.6717 14.1552 39.9457 15.3104 39.9348 16.4806V24.283C39.9412 24.504 39.8816 24.7219 39.7637 24.909C39.6458 25.0961 39.475 25.2439 39.2728 25.3337C38.8169 25.5517 38.3179 25.6648 37.8125 25.6648C37.3071 25.6648 36.8081 25.5517 36.3521 25.3337C36.1447 25.2471 35.9675 25.1011 35.8428 24.9142C35.7181 24.7273 35.6514 24.5077 35.6512 24.283V16.4806C35.6489 15.9811 35.5145 15.4911 35.2618 15.0602C35.0191 14.613 34.6633 14.2373 34.2298 13.9705C33.8038 13.6662 33.2931 13.5029 32.7695 13.5036C32.3146 13.5022 31.8689 13.6305 31.4844 13.8732C31.0541 14.1183 30.6976 14.4745 30.4524 14.9045C30.176 15.3895 30.041 15.9423 30.063 16.5V24.3025C30.063 24.6527 29.8488 24.9835 29.4399 25.2559C28.989 25.5513 28.4581 25.7007 27.9192 25.684Z" fill="url(#paint3_linear_35_746)"/>
<path d="M50.5446 25.9759C49.1134 26.0025 47.6929 25.7239 46.3778 25.1587C45.2443 24.6373 44.2749 23.8165 43.574 22.7849C42.8789 21.7217 42.5194 20.4745 42.542 19.2047V16.3834C42.5308 15.2236 42.8627 14.0864 43.4961 13.1145C44.1512 12.1057 45.048 11.2763 46.1052 10.7018C47.2295 10.0754 48.4981 9.7534 49.7853 9.7678C50.9569 9.75664 52.1136 10.0304 53.1557 10.5656C54.1602 11.0735 55.0232 11.8222 55.6675 12.7448C56.3159 13.7024 56.6494 14.8383 56.6216 15.9942C56.6216 16.9476 56.4658 17.6286 56.1542 18.0373C55.8574 18.4191 55.4379 18.6871 54.9665 18.7961C54.4857 18.8914 53.9963 18.9371 53.5062 18.9323H46.7887V19.4382C46.7765 19.8786 46.8648 20.316 47.047 20.7172C47.2292 21.1184 47.5004 21.4728 47.8401 21.7536C48.5605 22.3179 49.5146 22.6098 50.6439 22.6098C51.2702 22.6255 51.8931 22.5129 52.4742 22.279C52.961 22.065 53.3699 21.8509 53.7398 21.6564C54.0405 21.476 54.3824 21.3756 54.7329 21.3645C55.0503 21.3611 55.3569 21.4795 55.5896 21.6953C55.8312 21.9191 56.0235 22.1908 56.1542 22.493C56.2735 22.7288 56.34 22.9878 56.349 23.2519C56.349 23.6216 56.1153 24.0302 55.6285 24.4777C55.1418 24.9252 54.4992 25.256 53.6035 25.5673C52.6111 25.8606 51.5793 25.9985 50.5446 25.9759ZM46.8062 16.4223H51.635C51.8978 16.444 52.1614 16.39 52.3944 16.2666C52.5502 16.1304 52.628 15.8969 52.628 15.5467C52.6358 15.0584 52.4855 14.5807 52.1997 14.1847C51.9271 13.7955 51.5669 13.4756 51.1482 13.2507C50.7073 13.0295 50.2202 12.9162 49.7268 12.9199C49.2341 12.9208 48.7479 13.0339 48.3055 13.2507C47.8653 13.4411 47.4875 13.7512 47.2151 14.1457C46.9393 14.5448 46.8024 15.0234 46.8257 15.5078V16.4223H46.8062Z" fill="url(#paint4_linear_35_746)"/>
<path d="M61.2733 25.684C60.7405 25.7061 60.2147 25.556 59.774 25.256C59.3846 24.9641 59.1704 24.6528 59.1704 24.3026V11.2855C59.172 11.0861 59.2293 10.8911 59.336 10.7226C59.4427 10.5541 59.5944 10.4188 59.774 10.332C60.2311 10.0754 60.7492 9.94766 61.2733 9.96234C61.7552 9.93952 62.232 10.0689 62.6363 10.332C62.8062 10.4271 62.9479 10.5653 63.047 10.7328C63.1462 10.9002 63.1993 11.0909 63.2009 11.2855V12.6475C63.4513 12.1497 63.7726 11.6909 64.155 11.2855C64.5704 10.8519 65.0497 10.4844 65.5764 10.1958C66.0945 9.9091 66.6782 9.76161 67.2704 9.76776H68.3023C68.5153 9.77167 68.7244 9.82461 68.9136 9.92248C69.1027 10.0204 69.2667 10.1605 69.3927 10.332C69.7055 10.6856 69.8725 11.1445 69.86 11.6162C69.8695 12.111 69.704 12.5933 69.3927 12.9783C69.2605 13.1402 69.0943 13.2712 68.9059 13.362C68.7175 13.4528 68.5115 13.5011 68.3023 13.5036H67.2704C66.611 13.5199 65.9724 13.7372 65.4401 14.1263C64.8302 14.5609 64.3411 15.1434 64.0187 15.8191C63.6213 16.6225 63.4274 17.5111 63.454 18.4069V24.3026C63.454 24.6528 63.2399 24.9836 62.831 25.256C62.3685 25.5561 61.8243 25.7057 61.2733 25.684Z" fill="url(#paint5_linear_35_746)"/>
<path d="M77.6293 32.9999C76.3932 33.0069 75.164 32.8164 73.9882 32.4357C72.9701 32.1437 72.0445 31.5942 71.3012 30.8401C70.6503 30.1681 70.2931 29.2653 70.3082 28.3301C70.2891 27.5515 70.5363 26.7896 71.0091 26.1703C71.4752 25.598 72.0597 25.1334 72.7226 24.8083C72.3211 24.6263 71.9677 24.3531 71.6906 24.0105C71.4385 23.616 71.3097 23.1554 71.3207 22.6874C71.2924 22.1543 71.4584 21.6289 71.788 21.2087C72.1461 20.7921 72.5587 20.4256 73.0146 20.119C72.3644 19.6341 71.832 19.0089 71.4569 18.29C71.1025 17.5493 70.9227 16.7372 70.9312 15.9162V15.2157C70.9122 14.211 71.1899 13.2229 71.7295 12.3749C72.2988 11.5371 73.0866 10.871 74.0077 10.4486C75.0772 9.96483 76.2413 9.72553 77.4151 9.74817C78.1058 9.74609 78.7936 9.83773 79.4596 10.0206C80.0642 10.162 80.6426 10.3984 81.173 10.721C81.543 9.84546 81.8934 9.24227 82.2245 8.93095C82.5555 8.61963 82.867 8.46397 83.1785 8.46397C83.4044 8.45061 83.6306 8.48533 83.8421 8.56584C84.0535 8.64634 84.2455 8.77079 84.4052 8.93095C84.7167 9.24227 84.8725 9.53414 84.8725 9.78708C84.8747 9.97656 84.8137 10.1614 84.6992 10.3124C84.6075 10.4689 84.4809 10.602 84.3293 10.7016C84.1151 10.8378 83.862 10.9935 83.5699 11.188C83.258 11.3881 82.9871 11.6456 82.7716 11.9469C83.1555 12.376 83.4471 12.8793 83.6283 13.4256C83.8292 13.9873 83.9281 14.5804 83.9204 15.1768V15.8773C83.9341 16.8841 83.6495 17.8725 83.1026 18.7181C82.5186 19.5623 81.7183 20.2343 80.7855 20.6639C79.7205 21.1634 78.5543 21.4098 77.3781 21.3838C76.6535 21.3947 75.9315 21.2963 75.2363 21.0919C75.1294 21.1792 75.0316 21.277 74.9442 21.3838C74.8826 21.4974 74.8492 21.6242 74.8469 21.7535C74.8469 22.1232 75.0805 22.3956 75.5673 22.5512C76.1722 22.7271 76.791 22.8508 77.417 22.9209C78.1764 23.0182 78.9553 23.135 79.7925 23.2906C80.6209 23.414 81.4315 23.6361 82.2069 23.9522C82.9321 24.2461 83.5692 24.7219 84.0567 25.3337C84.5435 25.9368 84.7771 26.7346 84.7771 27.7464C84.7771 28.9722 84.4266 29.9646 83.7257 30.7234C83.0051 31.5266 82.0746 32.1129 81.0387 32.4162C79.9502 32.8274 78.7927 33.0256 77.6293 32.9999ZM77.5709 30.2564C78.3447 30.2793 79.1067 30.0618 79.7516 29.6338C80.0415 29.4575 80.2803 29.2085 80.4442 28.9116C80.6082 28.6147 80.6916 28.2801 80.6862 27.941C80.7014 27.5295 80.5625 27.1271 80.2968 26.8124C79.9958 26.5025 79.6205 26.2748 79.2064 26.1509C78.7261 26.0138 78.2386 25.9033 77.7461 25.8201C77.2204 25.7617 76.6947 25.6839 76.1495 25.6255C75.6559 25.8356 75.2164 26.1549 74.8644 26.5595C74.671 26.7813 74.5275 27.042 74.4435 27.324C74.3595 27.606 74.3371 27.9028 74.3777 28.1942C74.4183 28.4856 74.521 28.7649 74.6789 29.0132C74.8367 29.2616 75.0461 29.4732 75.2928 29.6338C75.9737 30.062 76.7666 30.2787 77.5709 30.2564ZM77.4949 18.8738C77.8255 18.887 78.1543 18.8195 78.4529 18.6771C78.7515 18.5347 79.0108 18.3217 79.2084 18.0565C79.6367 17.5117 79.8315 16.7918 79.8315 15.9357V15.2352C79.8555 14.5041 79.6364 13.7856 79.2084 13.1922C78.819 12.6473 78.2348 12.3749 77.456 12.3749C77.1193 12.3574 76.7834 12.4228 76.4779 12.5653C76.1723 12.7078 75.9065 12.923 75.7036 13.1922C75.2908 13.792 75.0794 14.5075 75.1 15.2352V15.8968C75.0733 16.6495 75.2845 17.3916 75.7036 18.0176C75.9108 18.2942 76.182 18.5166 76.494 18.6657C76.8059 18.8148 77.1494 18.8862 77.4949 18.8738Z" fill="url(#paint6_linear_35_746)"/>
<path d="M89.1363 6.46C88.5259 6.46773 87.935 6.24543 87.4812 5.83736C87.2691 5.65635 87.0971 5.43303 86.9764 5.18172C86.8557 4.93041 86.7889 4.65667 86.7803 4.37804C86.7809 4.09798 86.8442 3.8216 86.9655 3.56911C87.0868 3.31663 87.263 3.09442 87.4812 2.91872C87.9391 2.51742 88.5273 2.29614 89.1363 2.29614C89.7453 2.29614 90.3335 2.51742 90.7913 2.91872C91.0044 3.09656 91.1745 3.32014 91.2892 3.5728C91.4038 3.82546 91.4599 4.10071 91.4533 4.37804C91.4482 4.65351 91.3868 4.92503 91.273 5.17596C91.1592 5.4269 90.9953 5.65196 90.7913 5.83736C90.571 6.04623 90.311 6.20893 90.0268 6.31586C89.7425 6.4228 89.4398 6.4718 89.1363 6.46ZM89.1363 25.6841C88.5967 25.7117 88.0631 25.5613 87.6175 25.256C87.2281 24.9641 87.0139 24.6528 87.0139 24.3026V11.2855C87.0155 11.0861 87.0728 10.8911 87.1795 10.7226C87.2862 10.5541 87.4379 10.4188 87.6175 10.332C88.0808 10.0732 88.6058 9.94541 89.1363 9.96236C89.6672 9.94082 90.1935 10.0689 90.655 10.332C90.8393 10.4147 90.996 10.5485 91.1064 10.7175C91.2168 10.8865 91.2764 11.0836 91.2781 11.2855V24.2831C91.2781 24.6333 91.0639 24.9641 90.655 25.2365C90.2132 25.5515 89.6784 25.7091 89.1363 25.6841Z" fill="url(#paint7_linear_35_746)"/>
<path d="M99.6915 25.9759C98.6661 25.9837 97.6444 25.8528 96.6541 25.5867C95.8725 25.3598 95.1398 24.9904 94.4928 24.4971C93.9865 24.0496 93.7334 23.6021 93.7334 23.1351C93.7414 22.8605 93.8008 22.5899 93.9086 22.3373C94.0311 22.0564 94.2025 21.7995 94.4149 21.5785C94.5123 21.4746 94.6299 21.3918 94.7605 21.3349C94.891 21.278 95.0318 21.2483 95.1743 21.2477C95.5267 21.2682 95.8623 21.4051 96.1283 21.6368C96.5373 21.9098 96.967 22.1505 97.4134 22.3568C98.1078 22.6263 98.8497 22.7521 99.5942 22.7265C100.587 22.7265 101.23 22.5708 101.541 22.2595C101.685 22.144 101.803 21.9992 101.887 21.8349C101.971 21.6706 102.019 21.4903 102.028 21.3061C102.036 21.0814 101.985 20.8586 101.879 20.6603C101.773 20.4621 101.616 20.2955 101.424 20.1775C100.981 19.8797 100.486 19.6685 99.9641 19.5549C99.3605 19.3798 98.7375 19.1852 98.0365 18.9906C97.3841 18.7986 96.7516 18.5445 96.1478 18.2318C95.5621 17.9139 95.0612 17.4602 94.6875 16.9087C94.3175 16.3444 94.1228 15.605 94.1228 14.6905C94.1294 13.8854 94.3227 13.0929 94.6875 12.375C95.0574 11.6162 95.6805 11.013 96.5372 10.5266C97.394 10.0401 98.5622 9.76774 100.042 9.76774C100.901 9.76309 101.757 9.86108 102.593 10.0596C103.295 10.1898 103.968 10.447 104.579 10.8184C105.085 11.1492 105.338 11.5189 105.338 11.9081C105.324 12.1838 105.258 12.4543 105.143 12.7058C105.011 13.0243 104.82 13.3149 104.579 13.562C104.484 13.6882 104.36 13.7896 104.218 13.8574C104.075 13.9251 103.919 13.9573 103.761 13.9511C103.45 13.9337 103.145 13.8544 102.865 13.7176C102.492 13.5184 102.101 13.3555 101.697 13.2312C101.182 13.0647 100.642 12.9858 100.1 12.9977C99.6474 12.9798 99.1959 13.0595 98.7764 13.2312C98.4923 13.3552 98.2444 13.5494 98.056 13.7954C97.9043 13.9975 97.8223 14.2433 97.8223 14.4959C97.8242 14.6879 97.8775 14.8758 97.9769 15.0401C98.0762 15.2043 98.2178 15.339 98.387 15.4299C98.8463 15.6824 99.3375 15.8722 99.8473 15.9941C100.47 16.1498 101.113 16.3249 101.775 16.5195C102.451 16.6957 103.1 16.9641 103.703 17.3173C104.318 17.6627 104.829 18.1667 105.182 18.7766C105.552 19.3798 105.747 20.1581 105.747 21.1309C105.747 22.6097 105.221 23.7966 104.15 24.6722C103.155 25.5478 101.656 25.9759 99.6915 25.9759Z" fill="url(#paint8_linear_35_746)"/>
<path d="M113.495 25.9759C112.469 25.9837 111.448 25.8528 110.457 25.5867C109.68 25.3643 108.953 24.9944 108.316 24.4971C107.809 24.0496 107.556 23.6021 107.556 23.1351C107.566 22.8627 107.619 22.5935 107.712 22.3373C107.835 22.0612 107.999 21.8053 108.199 21.5785C108.296 21.4746 108.414 21.3918 108.544 21.3349C108.675 21.278 108.816 21.2483 108.958 21.2477C109.31 21.2682 109.646 21.4051 109.912 21.6368C110.321 21.9098 110.751 22.1505 111.197 22.3568C111.892 22.6263 112.634 22.7521 113.378 22.7265C114.371 22.7265 115.014 22.5708 115.325 22.2595C115.469 22.144 115.587 21.9992 115.671 21.8349C115.755 21.6706 115.803 21.4903 115.812 21.3061C115.82 21.0814 115.769 20.8586 115.663 20.6603C115.557 20.4621 115.4 20.2955 115.208 20.1775C114.765 19.8797 114.27 19.6685 113.748 19.5549C113.144 19.3798 112.521 19.1852 111.82 18.9906C111.168 18.7986 110.535 18.5445 109.932 18.2318C109.346 17.9139 108.845 17.4602 108.471 16.9087C108.101 16.3444 107.907 15.605 107.907 14.6905C107.913 13.8854 108.106 13.0929 108.471 12.375C108.841 11.6162 109.464 11.013 110.321 10.5266C111.178 10.0401 112.346 9.76774 113.826 9.76774C114.685 9.76309 115.541 9.86108 116.377 10.0596C117.079 10.1898 117.752 10.447 118.363 10.8184C118.869 11.1492 119.122 11.5189 119.122 11.9081C119.107 12.1838 119.041 12.4543 118.927 12.7058C118.795 13.0243 118.603 13.3149 118.363 13.562C118.266 13.6864 118.142 13.7865 118 13.8541C117.858 13.9217 117.702 13.9549 117.545 13.9511C117.234 13.9337 116.929 13.8544 116.649 13.7176C116.276 13.5184 115.885 13.3555 115.481 13.2312C114.965 13.0647 114.426 12.9858 113.884 12.9977C113.431 12.9798 112.98 13.0595 112.56 13.2312C112.276 13.3552 112.028 13.5494 111.84 13.7954C111.688 13.9975 111.606 14.2433 111.606 14.4959C111.608 14.6879 111.661 14.8758 111.761 15.0401C111.86 15.2043 112.002 15.339 112.171 15.4299C112.63 15.6824 113.121 15.8722 113.631 15.9941C114.254 16.1498 114.897 16.3249 115.559 16.5195C116.235 16.6957 116.884 16.9641 117.486 17.3173C118.103 17.6674 118.619 18.1699 118.986 18.7766C119.356 19.3798 119.55 20.1581 119.55 21.1309C119.55 22.6097 119.025 23.7966 117.954 24.6722C116.941 25.5478 115.442 25.9759 113.495 25.9759Z" fill="url(#paint9_linear_35_746)"/>
<path d="M124.282 6.46C123.671 6.46773 123.08 6.24543 122.627 5.83736C122.415 5.65635 122.243 5.43303 122.122 5.18172C122.001 4.93041 121.934 4.65667 121.926 4.37804C121.926 4.09798 121.99 3.8216 122.111 3.56911C122.232 3.31663 122.408 3.09442 122.627 2.91872C123.085 2.51742 123.673 2.29614 124.282 2.29614C124.891 2.29614 125.479 2.51742 125.937 2.91872C126.15 3.09656 126.32 3.32014 126.435 3.5728C126.549 3.82546 126.605 4.10071 126.599 4.37804C126.594 4.65351 126.532 4.92503 126.419 5.17596C126.305 5.4269 126.141 5.65196 125.937 5.83736C125.716 6.04623 125.457 6.20893 125.172 6.31586C124.888 6.4228 124.585 6.4718 124.282 6.46ZM124.282 25.6841C123.742 25.7117 123.209 25.5613 122.763 25.256C122.374 24.9641 122.159 24.6528 122.159 24.3026V11.2855C122.161 11.0861 122.218 10.8911 122.325 10.7226C122.432 10.5541 122.583 10.4188 122.763 10.332C123.227 10.0755 123.752 9.94783 124.282 9.96236C124.813 9.94082 125.339 10.0689 125.801 10.332C125.985 10.4147 126.141 10.5485 126.252 10.7175C126.362 10.8865 126.422 11.0836 126.424 11.2855V24.2831C126.424 24.6333 126.209 24.9641 125.801 25.2365C125.356 25.5462 124.823 25.7033 124.282 25.6841Z" fill="url(#paint10_linear_35_746)"/>
<path d="M131.819 25.6839C131.28 25.7115 130.746 25.5611 130.3 25.2558C129.911 24.9639 129.697 24.6526 129.697 24.3024V11.2853C129.698 11.0859 129.756 10.8909 129.862 10.7225C129.969 10.554 130.121 10.4187 130.3 10.3319C130.764 10.073 131.289 9.94523 131.819 9.96218C132.289 9.94188 132.752 10.0714 133.143 10.3319C133.313 10.4269 133.455 10.5652 133.554 10.7326C133.653 10.9001 133.706 11.0907 133.708 11.2853V12.2776C134.128 11.5931 134.693 11.0086 135.363 10.5654C136.083 10.04 136.998 9.7676 138.108 9.7676C139.033 9.75653 139.928 10.0894 140.62 10.7016C141.353 11.3414 141.91 12.1588 142.236 13.0754C142.715 12.0573 143.471 11.1943 144.417 10.5848C145.251 10.0589 146.215 9.77584 147.201 9.7676C148.204 9.76715 149.188 10.0432 150.044 10.5654C150.973 11.1002 151.73 11.8903 152.223 12.8419C152.788 13.8342 153.08 15.0406 153.08 16.4805V24.2829C153.08 24.6332 152.865 24.9639 152.457 25.2364C152.006 25.5313 151.476 25.6808 150.938 25.6644C150.412 25.6809 149.894 25.5311 149.458 25.2364C149.03 24.9445 148.835 24.6332 148.835 24.2829V16.4805C148.851 15.9047 148.717 15.3346 148.445 14.8266C148.23 14.3974 147.882 14.0494 147.452 13.8342C147.062 13.605 146.62 13.4778 146.167 13.4645C145.731 13.4664 145.305 13.5948 144.941 13.8342C144.528 14.0715 144.185 14.4139 143.948 14.8266C143.669 15.3178 143.534 15.8774 143.558 16.4415V24.3218C143.566 24.5482 143.502 24.7711 143.376 24.9595C143.251 25.1479 143.069 25.2923 142.857 25.3726C142.401 25.5652 141.911 25.6645 141.416 25.6645C140.921 25.6645 140.431 25.5652 139.976 25.3726C139.764 25.2923 139.582 25.1479 139.456 24.9595C139.331 24.7711 139.267 24.5482 139.275 24.3218V16.4805C139.287 15.9237 139.153 15.3735 138.885 14.8849C138.66 14.4528 138.316 14.0947 137.892 13.8537C137.506 13.6147 137.061 13.4867 136.607 13.484C136.164 13.4876 135.729 13.6012 135.341 13.8148C134.924 14.0465 134.58 14.3902 134.348 14.8071C134.092 15.3201 133.965 15.8878 133.978 16.461V24.2635C133.978 24.6137 133.764 24.9445 133.355 25.2169C132.909 25.5382 132.369 25.7024 131.819 25.6839Z" fill="url(#paint11_linear_35_746)"/>
<path d="M162.815 25.9758C161.572 25.9851 160.348 25.6626 159.271 25.0418C158.214 24.425 157.319 23.5644 156.662 22.5318C156.01 21.5375 155.665 20.3738 155.669 19.1851V16.4805C155.661 15.3089 155.992 14.16 156.623 13.1727C157.258 12.1389 158.15 11.2874 159.213 10.7016C160.311 10.0804 161.553 9.75835 162.815 9.76765C164.071 9.75578 165.308 10.0781 166.398 10.7016C167.463 11.2654 168.363 12.097 169.009 13.1143C169.666 14.1132 170.012 15.2849 170.002 16.4805V19.1851C170 20.3608 169.655 21.5106 169.009 22.4929C168.342 23.5314 167.434 24.3927 166.361 25.0029C165.294 25.6535 164.065 25.9907 162.815 25.9758ZM162.815 22.2399C163.334 22.2453 163.842 22.0963 164.275 21.8119C164.716 21.531 165.078 21.1426 165.327 20.6833C165.587 20.2271 165.721 19.7101 165.716 19.1851V16.4805C165.714 15.981 165.58 15.491 165.327 15.0601C165.06 14.6246 164.701 14.2528 164.275 13.9705C163.853 13.6581 163.34 13.4939 162.815 13.5035C162.296 13.4981 161.788 13.6471 161.355 13.9316C160.914 14.2124 160.552 14.6008 160.303 15.0601C160.065 15.4961 159.938 15.9839 159.933 16.4805V19.1851C159.933 19.7071 160.06 20.2213 160.303 20.6833C160.564 21.1342 160.923 21.52 161.355 21.8119C161.788 22.0963 162.296 22.2453 162.815 22.2399Z" fill="url(#paint12_linear_35_746)"/>
<defs>
<linearGradient id="paint0_linear_35_746" x1="11.1395" y1="23.3491" x2="11.2426" y2="-4.13277" gradientUnits="userSpaceOnUse">
<stop stop-color="#0F8CD6"/>
<stop offset="1" stop-color="#78CAFB"/>
</linearGradient>
<linearGradient id="paint1_linear_35_746" x1="0.560539" y1="20.415" x2="31.8661" y2="20.3292" gradientUnits="userSpaceOnUse">
<stop stop-color="#0F8CD6"/>
<stop offset="1" stop-color="#78CAFB"/>
</linearGradient>
<linearGradient id="paint2_linear_35_746" x1="5.8409" y1="14.778" x2="15.844" y2="11.8478" gradientUnits="userSpaceOnUse">
<stop stop-color="#007C21"/>
<stop offset="0.09" stop-color="#078020"/>
<stop offset="0.22" stop-color="#1B8A1D"/>
<stop offset="0.37" stop-color="#3C9B19"/>
<stop offset="0.55" stop-color="#69B213"/>
<stop offset="0.74" stop-color="#A4D00C"/>
<stop offset="0.94" stop-color="#E9F403"/>
<stop offset="1" stop-color="#FFFF00"/>
</linearGradient>
<linearGradient id="paint3_linear_35_746" x1="33.1861" y1="32.9689" x2="32.5931" y2="9.60424" gradientUnits="userSpaceOnUse">
<stop stop-color="#007C21"/>
<stop offset="0.09" stop-color="#078020"/>
<stop offset="0.22" stop-color="#1B8A1D"/>
<stop offset="0.37" stop-color="#3C9B19"/>
<stop offset="0.55" stop-color="#69B213"/>
<stop offset="0.74" stop-color="#A4D00C"/>
<stop offset="0.94" stop-color="#E9F403"/>
<stop offset="1" stop-color="#FFFF00"/>
</linearGradient>
<linearGradient id="paint4_linear_35_746" x1="49.9624" y1="32.5429" x2="49.3675" y2="9.17821" gradientUnits="userSpaceOnUse">
<stop stop-color="#007C21"/>
<stop offset="0.11" stop-color="#057E20"/>
<stop offset="0.23" stop-color="#12851F"/>
<stop offset="0.36" stop-color="#29911C"/>
<stop offset="0.5" stop-color="#49A218"/>
<stop offset="0.64" stop-color="#72B712"/>
<stop offset="0.78" stop-color="#A5D10C"/>
<stop offset="0.93" stop-color="#DFEF04"/>
<stop offset="1" stop-color="#FFFF00"/>
</linearGradient>
<linearGradient id="paint5_linear_35_746" x1="64.8774" y1="32.1634" x2="64.2843" y2="8.79876" gradientUnits="userSpaceOnUse">
<stop stop-color="#007C21"/>
<stop offset="0.11" stop-color="#057E20"/>
<stop offset="0.23" stop-color="#12851F"/>
<stop offset="0.36" stop-color="#29911C"/>
<stop offset="0.5" stop-color="#49A218"/>
<stop offset="0.64" stop-color="#72B712"/>
<stop offset="0.78" stop-color="#A5D10C"/>
<stop offset="0.93" stop-color="#DFEF04"/>
<stop offset="1" stop-color="#FFFF00"/>
</linearGradient>
<linearGradient id="paint6_linear_35_746" x1="77.9155" y1="31.8305" x2="77.3205" y2="8.4659" gradientUnits="userSpaceOnUse">
<stop stop-color="#007C21"/>
<stop offset="0.11" stop-color="#057E20"/>
<stop offset="0.23" stop-color="#12851F"/>
<stop offset="0.36" stop-color="#29911C"/>
<stop offset="0.5" stop-color="#49A218"/>
<stop offset="0.64" stop-color="#72B712"/>
<stop offset="0.78" stop-color="#A5D10C"/>
<stop offset="0.93" stop-color="#DFEF04"/>
<stop offset="1" stop-color="#FFFF00"/>
</linearGradient>
<linearGradient id="paint7_linear_35_746" x1="89.5101" y1="25.1295" x2="88.9151" y2="1.7532" gradientUnits="userSpaceOnUse">
<stop stop-color="#007C21"/>
<stop offset="0.59" stop-color="#B8DB09"/>
<stop offset="0.84" stop-color="#BEDE08"/>
<stop offset="1" stop-color="#FFFF00"/>
</linearGradient>
<linearGradient id="paint8_linear_35_746" x1="99.9719" y1="31.2703" x2="99.3789" y2="7.90563" gradientUnits="userSpaceOnUse">
<stop stop-color="#007C21"/>
<stop offset="0.09" stop-color="#078020"/>
<stop offset="0.22" stop-color="#1B8A1D"/>
<stop offset="0.37" stop-color="#3C9B19"/>
<stop offset="0.55" stop-color="#69B213"/>
<stop offset="0.74" stop-color="#A4D00C"/>
<stop offset="0.94" stop-color="#E9F403"/>
<stop offset="1" stop-color="#FFFF00"/>
</linearGradient>
<linearGradient id="paint9_linear_35_746" x1="113.779" y1="30.9181" x2="113.184" y2="7.55345" gradientUnits="userSpaceOnUse">
<stop stop-color="#007C21"/>
<stop offset="0.09" stop-color="#078020"/>
<stop offset="0.22" stop-color="#1B8A1D"/>
<stop offset="0.37" stop-color="#3C9B19"/>
<stop offset="0.55" stop-color="#69B213"/>
<stop offset="0.74" stop-color="#A4D00C"/>
<stop offset="0.94" stop-color="#E9F403"/>
<stop offset="1" stop-color="#FFFF00"/>
</linearGradient>
<linearGradient id="paint10_linear_35_746" x1="124.671" y1="25.7444" x2="124.076" y2="2.37" gradientUnits="userSpaceOnUse">
<stop stop-color="#007C21"/>
<stop offset="0.59" stop-color="#B8DB09"/>
<stop offset="0.84" stop-color="#BEDE08"/>
<stop offset="1" stop-color="#FFFF00"/>
</linearGradient>
<linearGradient id="paint11_linear_35_746" x1="141.64" y1="30.2097" x2="141.045" y2="6.84506" gradientUnits="userSpaceOnUse">
<stop stop-color="#007C21"/>
<stop offset="0.09" stop-color="#078020"/>
<stop offset="0.22" stop-color="#1B8A1D"/>
<stop offset="0.37" stop-color="#3C9B19"/>
<stop offset="0.55" stop-color="#69B213"/>
<stop offset="0.74" stop-color="#A4D00C"/>
<stop offset="0.94" stop-color="#E9F403"/>
<stop offset="1" stop-color="#FFFF00"/>
</linearGradient>
<linearGradient id="paint12_linear_35_746" x1="163.136" y1="29.663" x2="162.541" y2="6.29835" gradientUnits="userSpaceOnUse">
<stop stop-color="#007C21"/>
<stop offset="0.08" stop-color="#078020"/>
<stop offset="0.2" stop-color="#1B8A1D"/>
<stop offset="0.34" stop-color="#3C9B19"/>
<stop offset="0.51" stop-color="#69B213"/>
<stop offset="0.68" stop-color="#A4D00C"/>
<stop offset="0.87" stop-color="#E9F403"/>
<stop offset="0.93" stop-color="#FFFF00"/>
</linearGradient>
</defs>
</svg>
