<svg width="38" height="44" viewBox="0 0 38 44" fill="none" xmlns="http://www.w3.org/2000/svg">
<g clip-path="url(#clip0_35_897)">
<path d="M6.10852 29.6333C6.12861 25.2431 7.87094 21.0395 10.9546 17.9414C14.0383 14.8432 18.2125 13.1026 22.5648 13.1H31.4869C33.1686 13.1006 34.7855 12.4453 35.9994 11.2712C37.2132 10.0971 37.9301 8.49499 38 6.80002V6.33335C37.9425 4.63111 37.2306 3.01824 36.0149 1.83616C34.7993 0.654081 33.1754 -0.00442934 31.4869 2.24254e-05H22.5648C-2.31458 2.24254e-05 -8.92353 35.2 14.4688 44C11.9408 42.5645 9.83512 40.4786 8.36649 37.9549C6.89786 35.4311 6.11874 32.5597 6.10852 29.6333Z" fill="url(#paint0_linear_35_897)"/>
<path d="M21.9037 43.8333C19.8573 43.7421 17.8642 43.1472 16.098 42.1006C14.3319 41.054 12.8463 39.5874 11.771 37.8288C10.6956 36.0702 10.0631 34.0729 9.92849 32.0111C9.79393 29.9493 10.1614 27.8856 10.9989 26C14.0656 29.0464 18.1945 30.7578 22.4985 30.7667H31.4206C33.1018 30.7669 34.7178 31.4226 35.931 32.5966C37.1441 33.7707 37.8605 35.3723 37.9304 37.0667V37.5333C37.8662 39.2297 37.1516 40.8346 35.9372 42.0099C34.7228 43.1851 33.1035 43.8389 31.4206 43.8333H21.9037Z" fill="url(#paint1_linear_35_897)"/>
<path d="M21.1436 27.3334C24.0636 27.3334 26.4308 24.9456 26.4308 22.0001C26.4308 19.0546 24.0636 16.6667 21.1436 16.6667C18.2236 16.6667 15.8564 19.0546 15.8564 22.0001C15.8564 24.9456 18.2236 27.3334 21.1436 27.3334Z" fill="url(#paint2_linear_35_897)"/>
</g>
<defs>
<linearGradient id="paint0_linear_35_897" x1="18.9034" y1="40" x2="19.0817" y2="-7.07996" gradientUnits="userSpaceOnUse">
<stop stop-color="#0F8CD6"/>
<stop offset="1" stop-color="#78CAFB"/>
</linearGradient>
<linearGradient id="paint1_linear_35_897" x1="0.950042" y1="34.9733" x2="54.0794" y2="34.8292" gradientUnits="userSpaceOnUse">
<stop stop-color="#0F8CD6"/>
<stop offset="1" stop-color="#78CAFB"/>
</linearGradient>
<linearGradient id="paint2_linear_35_897" x1="9.9117" y1="25.3167" x2="26.9132" y2="20.3831" gradientUnits="userSpaceOnUse">
<stop stop-color="#007C21"/>
<stop offset="0.09" stop-color="#078020"/>
<stop offset="0.22" stop-color="#1B8A1D"/>
<stop offset="0.37" stop-color="#3C9B19"/>
<stop offset="0.55" stop-color="#69B213"/>
<stop offset="0.74" stop-color="#A4D00C"/>
<stop offset="0.94" stop-color="#E9F403"/>
<stop offset="1" stop-color="#FFFF00"/>
</linearGradient>
<clipPath id="clip0_35_897">
<rect width="38" height="44" fill="white"/>
</clipPath>
</defs>
</svg>
